<svg width="256" height="256" viewBox="0 0 256 256" fill="none" xmlns="http://www.w3.org/2000/svg">
<rect width="256" height="256" rx="64" fill="#F1F1F1"/>
<path d="M72 62H82V42H72V52V62ZM72 214H82V194H72V204V214ZM72 52V42C64.62 42 58.1471 43.544 52.7969 46.9127C47.3867 50.319 43.9454 55.0747 41.8085 60.0608C37.84 69.3208 38 80.578 38 88H48H58C58 79.422 58.16 72.6792 60.1915 67.9392C61.0546 65.9253 62.1133 64.681 63.4531 63.8373C64.8529 62.956 67.38 62 72 62V52ZM48 88H38V104H48H58V88H48ZM48 104H38C38 110.443 36.3891 113.798 34.9742 115.415C33.7123 116.857 31.6748 118 28 118V128V138C36.3252 138 44.2877 135.143 50.0258 128.585C55.6109 122.202 58 113.557 58 104H48ZM28 128V138C31.6748 138 33.7123 139.143 34.9742 140.585C36.3891 142.202 38 145.557 38 152H48H58C58 142.443 55.6109 133.798 50.0258 127.415C44.2877 120.857 36.3252 118 28 118V128ZM48 152H38V168H48H58V152H48ZM48 168H38C38 175.422 37.84 186.679 41.8085 195.939C43.9454 200.925 47.3867 205.681 52.7969 209.087C58.1471 212.456 64.62 214 72 214V204V194C67.38 194 64.8529 193.044 63.4531 192.163C62.1133 191.319 61.0546 190.075 60.1915 188.061C58.16 183.321 58 176.578 58 168H48Z" fill="black"/>
<path d="M184 42H174V62H184V52V42ZM184 194H174V214H184V204V194ZM184 52V62C188.62 62 191.147 62.956 192.547 63.8373C193.887 64.681 194.945 65.9253 195.809 67.9392C197.84 72.6792 198 79.422 198 88H208H218C218 80.578 218.16 69.3208 214.191 60.0608C212.055 55.0747 208.613 50.319 203.203 46.9127C197.853 43.544 191.38 42 184 42V52ZM208 88H198V104H208H218V88H208ZM208 104H198C198 113.557 200.389 122.202 205.974 128.585C211.712 135.143 219.675 138 228 138V128V118C224.325 118 222.288 116.857 221.026 115.415C219.611 113.798 218 110.443 218 104H208ZM228 128V118C219.675 118 211.712 120.857 205.974 127.415C200.389 133.798 198 142.443 198 152H208H218C218 145.557 219.611 142.202 221.026 140.585C222.288 139.143 224.325 138 228 138V128ZM208 152H198V168H208H218V152H208ZM208 168H198C198 176.578 197.84 183.321 195.809 188.061C194.945 190.075 193.887 191.319 192.547 192.163C191.147 193.044 188.62 194 184 194V204V214C191.38 214 197.853 212.456 203.203 209.087C208.613 205.681 212.055 200.925 214.191 195.939C218.16 186.679 218 175.422 218 168H208Z" fill="black"/>
<path d="M153.5 94H102.5C97.8056 94 94 97.8056 94 102.5V153.5C94 158.194 97.8056 162 102.5 162H153.5C158.194 162 162 158.194 162 153.5V102.5C162 97.8056 158.194 94 153.5 94Z" fill="black"/>
</svg>